# xmcd CD database file
#
# Track frame offsets:
#	182
#	16845
#	32867
#	62755
#	85842
#	100782
#	116755
#	135465
#	159547
#
# Disc length: 2492 seconds
#
# Revision: 0
# Processed by: cddbd v1.5PL3 Copyright (c) Steve Scherf et al.
# Submitted via: CDex 1.51
#
DISCID=6b09ba09
DTITLE=David Brunn - Themes For Dreams
DYEAR=1990
DGENRE=New Age
TTITLE0=Palisades
TTITLE1=Taos
TTITLE2=Time Laps (Secrets Of Time)
TTITLE3=Orcas Moon
TTITLE4=Crater Lake
TTITLE5=Rain City (Wrong Channel)
TTITLE6=Metroasis
TTITLE7=Mirage
TTITLE8=Reflection
EXTD=YEAR: 1990
EXTT0=
EXTT1=
EXTT2=
EXTT3=
EXTT4=
EXTT5=
EXTT6=
EXTT7=
EXTT8=
PLAYORDER=
